<svg width="456" height="456" viewBox="0 0 456 456" fill="none" xmlns="http://www.w3.org/2000/svg">
<g filter="url(#filter0_f)">
<path d="M84 361C90.0751 361 95 365.925 95 372C95 378.075 90.0751 383 84 383C77.9249 383 73 378.075 73 372C73 365.925 77.9249 361 84 361Z" fill="#DEE0F5"/>
<path d="M84 217C90.0751 217 95 221.925 95 228C95 234.075 90.0751 239 84 239C77.9249 239 73 234.075 73 228C73 221.925 77.9249 217 84 217Z" fill="#DEE0F5"/>
<path d="M84 73C90.0751 73 95 77.9249 95 84C95 90.0751 90.0751 95 84 95C77.9249 95 73 90.0751 73 84C73 77.9249 77.9249 73 84 73Z" fill="#DEE0F5"/>
<path d="M84 433C90.0751 433 95 437.925 95 444C95 450.075 90.0751 455 84 455C77.9249 455 73 450.075 73 444C73 437.925 77.9249 433 84 433Z" fill="#DEE0F5"/>
<path d="M84 289C90.0751 289 95 293.925 95 300C95 306.075 90.0751 311 84 311C77.9249 311 73 306.075 73 300C73 293.925 77.9249 289 84 289Z" fill="#DEE0F5"/>
<path d="M84 145C90.0751 145 95 149.925 95 156C95 162.075 90.0751 167 84 167C77.9249 167 73 162.075 73 156C73 149.925 77.9249 145 84 145Z" fill="#DEE0F5"/>
<path d="M84 1C90.0751 1 95 5.92487 95 12C95 18.0751 90.0751 23 84 23C77.9249 23 73 18.0751 73 12C73 5.92487 77.9249 1 84 1Z" fill="#DEE0F5"/>
<path d="M156 361C162.075 361 167 365.925 167 372C167 378.075 162.075 383 156 383C149.925 383 145 378.075 145 372C145 365.925 149.925 361 156 361Z" fill="#DEE0F5"/>
<path d="M156 217C162.075 217 167 221.925 167 228C167 234.075 162.075 239 156 239C149.925 239 145 234.075 145 228C145 221.925 149.925 217 156 217Z" fill="#DEE0F5"/>
<path d="M156 73C162.075 73 167 77.9249 167 84C167 90.0751 162.075 95 156 95C149.925 95 145 90.0751 145 84C145 77.9249 149.925 73 156 73Z" fill="#DEE0F5"/>
<path d="M156 433C162.075 433 167 437.925 167 444C167 450.075 162.075 455 156 455C149.925 455 145 450.075 145 444C145 437.925 149.925 433 156 433Z" fill="#DEE0F5"/>
<path d="M156 289C162.075 289 167 293.925 167 300C167 306.075 162.075 311 156 311C149.925 311 145 306.075 145 300C145 293.925 149.925 289 156 289Z" fill="#DEE0F5"/>
<path d="M156 145C162.075 145 167 149.925 167 156C167 162.075 162.075 167 156 167C149.925 167 145 162.075 145 156C145 149.925 149.925 145 156 145Z" fill="#DEE0F5"/>
<path d="M156 1C162.075 1 167 5.92487 167 12C167 18.0751 162.075 23 156 23C149.925 23 145 18.0751 145 12C145 5.92487 149.925 1 156 1Z" fill="#DEE0F5"/>
<path d="M228 361C234.075 361 239 365.925 239 372C239 378.075 234.075 383 228 383C221.925 383 217 378.075 217 372C217 365.925 221.925 361 228 361Z" fill="#DEE0F5"/>
<path d="M228 217C234.075 217 239 221.925 239 228C239 234.075 234.075 239 228 239C221.925 239 217 234.075 217 228C217 221.925 221.925 217 228 217Z" fill="#DEE0F5"/>
<path d="M228 73C234.075 73 239 77.9249 239 84C239 90.0751 234.075 95 228 95C221.925 95 217 90.0751 217 84C217 77.9249 221.925 73 228 73Z" fill="#DEE0F5"/>
<path d="M228 433C234.075 433 239 437.925 239 444C239 450.075 234.075 455 228 455C221.925 455 217 450.075 217 444C217 437.925 221.925 433 228 433Z" fill="#DEE0F5"/>
<path d="M228 289C234.075 289 239 293.925 239 300C239 306.075 234.075 311 228 311C221.925 311 217 306.075 217 300C217 293.925 221.925 289 228 289Z" fill="#DEE0F5"/>
<path d="M228 145C234.075 145 239 149.925 239 156C239 162.075 234.075 167 228 167C221.925 167 217 162.075 217 156C217 149.925 221.925 145 228 145Z" fill="#DEE0F5"/>
<path d="M228 1C234.075 1 239 5.92487 239 12C239 18.0751 234.075 23 228 23C221.925 23 217 18.0751 217 12C217 5.92487 221.925 1 228 1Z" fill="#DEE0F5"/>
<path d="M300 361C306.075 361 311 365.925 311 372C311 378.075 306.075 383 300 383C293.925 383 289 378.075 289 372C289 365.925 293.925 361 300 361Z" fill="#DEE0F5"/>
<path d="M300 217C306.075 217 311 221.925 311 228C311 234.075 306.075 239 300 239C293.925 239 289 234.075 289 228C289 221.925 293.925 217 300 217Z" fill="#DEE0F5"/>
<path d="M300 73C306.075 73 311 77.9249 311 84C311 90.0751 306.075 95 300 95C293.925 95 289 90.0751 289 84C289 77.9249 293.925 73 300 73Z" fill="#DEE0F5"/>
<path d="M300 433C306.075 433 311 437.925 311 444C311 450.075 306.075 455 300 455C293.925 455 289 450.075 289 444C289 437.925 293.925 433 300 433Z" fill="#DEE0F5"/>
<path d="M300 289C306.075 289 311 293.925 311 300C311 306.075 306.075 311 300 311C293.925 311 289 306.075 289 300C289 293.925 293.925 289 300 289Z" fill="#DEE0F5"/>
<path d="M300 145C306.075 145 311 149.925 311 156C311 162.075 306.075 167 300 167C293.925 167 289 162.075 289 156C289 149.925 293.925 145 300 145Z" fill="#DEE0F5"/>
<path d="M300 1C306.075 1 311 5.92487 311 12C311 18.0751 306.075 23 300 23C293.925 23 289 18.0751 289 12C289 5.92487 293.925 1 300 1Z" fill="#DEE0F5"/>
<path d="M372 361C378.075 361 383 365.925 383 372C383 378.075 378.075 383 372 383C365.925 383 361 378.075 361 372C361 365.925 365.925 361 372 361Z" fill="#DEE0F5"/>
<path d="M372 217C378.075 217 383 221.925 383 228C383 234.075 378.075 239 372 239C365.925 239 361 234.075 361 228C361 221.925 365.925 217 372 217Z" fill="#DEE0F5"/>
<path d="M372 73C378.075 73 383 77.9249 383 84C383 90.0751 378.075 95 372 95C365.925 95 361 90.0751 361 84C361 77.9249 365.925 73 372 73Z" fill="#DEE0F5"/>
<path d="M372 433C378.075 433 383 437.925 383 444C383 450.075 378.075 455 372 455C365.925 455 361 450.075 361 444C361 437.925 365.925 433 372 433Z" fill="#DEE0F5"/>
<path d="M372 289C378.075 289 383 293.925 383 300C383 306.075 378.075 311 372 311C365.925 311 361 306.075 361 300C361 293.925 365.925 289 372 289Z" fill="#DEE0F5"/>
<path d="M372 145C378.075 145 383 149.925 383 156C383 162.075 378.075 167 372 167C365.925 167 361 162.075 361 156C361 149.925 365.925 145 372 145Z" fill="#DEE0F5"/>
<path d="M372 1C378.075 1 383 5.92487 383 12C383 18.0751 378.075 23 372 23C365.925 23 361 18.0751 361 12C361 5.92487 365.925 1 372 1Z" fill="#DEE0F5"/>
<path d="M444 361C450.075 361 455 365.925 455 372C455 378.075 450.075 383 444 383C437.925 383 433 378.075 433 372C433 365.925 437.925 361 444 361Z" fill="#DEE0F5"/>
<path d="M444 217C450.075 217 455 221.925 455 228C455 234.075 450.075 239 444 239C437.925 239 433 234.075 433 228C433 221.925 437.925 217 444 217Z" fill="#DEE0F5"/>
<path d="M444 73C450.075 73 455 77.9249 455 84C455 90.0751 450.075 95 444 95C437.925 95 433 90.0751 433 84C433 77.9249 437.925 73 444 73Z" fill="#DEE0F5"/>
<path d="M444 433C450.075 433 455 437.925 455 444C455 450.075 450.075 455 444 455C437.925 455 433 450.075 433 444C433 437.925 437.925 433 444 433Z" fill="#DEE0F5"/>
<path d="M444 289C450.075 289 455 293.925 455 300C455 306.075 450.075 311 444 311C437.925 311 433 306.075 433 300C433 293.925 437.925 289 444 289Z" fill="#DEE0F5"/>
<path d="M444 145C450.075 145 455 149.925 455 156C455 162.075 450.075 167 444 167C437.925 167 433 162.075 433 156C433 149.925 437.925 145 444 145Z" fill="#DEE0F5"/>
<path d="M444 1C450.075 1 455 5.92487 455 12C455 18.0751 450.075 23 444 23C437.925 23 433 18.0751 433 12C433 5.92487 437.925 1 444 1Z" fill="#DEE0F5"/>
<path d="M12 361C18.0751 361 23 365.925 23 372C23 378.075 18.0751 383 12 383C5.92487 383 1 378.075 1 372C1 365.925 5.92487 361 12 361Z" fill="#DEE0F5"/>
<path d="M12 217C18.0751 217 23 221.925 23 228C23 234.075 18.0751 239 12 239C5.92487 239 1 234.075 1 228C1 221.925 5.92487 217 12 217Z" fill="#DEE0F5"/>
<path d="M12 73C18.0751 73 23 77.9249 23 84C23 90.0751 18.0751 95 12 95C5.92487 95 1 90.0751 1 84C1 77.9249 5.92487 73 12 73Z" fill="#DEE0F5"/>
<path d="M12 433C18.0751 433 23 437.925 23 444C23 450.075 18.0751 455 12 455C5.92487 455 1 450.075 1 444C1 437.925 5.92487 433 12 433Z" fill="#DEE0F5"/>
<path d="M12 289C18.0751 289 23 293.925 23 300C23 306.075 18.0751 311 12 311C5.92487 311 1 306.075 1 300C1 293.925 5.92487 289 12 289Z" fill="#DEE0F5"/>
<path d="M12 145C18.0751 145 23 149.925 23 156C23 162.075 18.0751 167 12 167C5.92487 167 1 162.075 1 156C1 149.925 5.92487 145 12 145Z" fill="#DEE0F5"/>
<path d="M12 1C18.0751 1 23 5.92487 23 12C23 18.0751 18.0751 23 12 23C5.92487 23 1 18.0751 1 12C1 5.92487 5.92487 1 12 1Z" fill="#DEE0F5"/>
</g>
<defs>
<filter id="filter0_f" x="0" y="0" width="456" height="456" filterUnits="userSpaceOnUse" color-interpolation-filters="sRGB">
<feFlood flood-opacity="0" result="BackgroundImageFix"/>
<feBlend mode="normal" in="SourceGraphic" in2="BackgroundImageFix" result="shape"/>
<feGaussianBlur stdDeviation="0.5" result="effect1_foregroundBlur"/>
</filter>
</defs>
</svg>
